<?xml version="1.0" encoding="UTF-8"?> <svg xmlns="http://www.w3.org/2000/svg" xmlns:xlink="http://www.w3.org/1999/xlink" width="168px" height="40px" viewBox="0 0 168 40"><!-- Generator: Sketch 52.4 (67378) - http://www.bohemiancoding.com/sketch --><title>Group 36</title><desc>Created with Sketch.</desc><defs><polygon id="path-1" points="4.2248062e-05 2.77777778e-05 70.9767864 2.77777778e-05 70.9767864 40 4.2248062e-05 40"></polygon><polygon id="path-3" points="0 40 168 40 168 0 0 0"></polygon></defs><g id="Desktop-1336-px-width" stroke="none" stroke-width="1" fill="none" fill-rule="evenodd"><g id="Careers-Page-1" transform="translate(-654.000000, -3364.000000)"><g id="Footer" transform="translate(165.000000, 3364.000000)"><g id="Disney-logos" transform="translate(349.000000, 0.000000)"><g id="Group-36" transform="translate(140.000000, 0.000000)"><path d="M33.0963558,11.6357369 C32.1375635,11.7780861 30.6584367,13.0623234 29.9534884,14.1160169 C31.035878,14.316002 32.9419894,14.2404435 33.7857892,12.5143306 C33.7857892,12.5143306 34.1953033,11.4447775 33.0963558,11.6357369" id="Fill-1" fill="#000000"></path><path d="M59.7762457,19.7152116 C59.1951501,20.3629894 58.1464765,21.5768434 57.3023256,23.2258065 C58.1878176,23.1256472 59.0424743,22.6411371 59.3004813,22.3942676 C59.7205784,22.0186026 60.6987128,20.9995028 60.5411253,19.6447744 C60.5411253,19.6447744 60.4525761,18.9477313 59.7762457,19.7152116" id="Fill-3" fill="#000000"></path><path d="M28.9075705,12.6015228 C28.6107699,13.0713935 28.5975704,13.3543475 28.7364796,13.5483871 C29.0741358,13.038112 29.6935074,12.2308826 30.6046512,11.6129032 C29.9013055,11.6766416 29.3087101,11.9771574 28.9075705,12.6015228" id="Fill-5" fill="#000000"></path><g id="Group-9"><mask id="mask-2" fill="white"><use xlink:href="#path-1"></use></mask><g id="Clip-8"></g><path d="M61.689395,22.37725 C61.071165,23.4557222 59.3249118,25.7135 57.004789,25.1804444 C56.2386908,27.03725 55.595112,28.9157222 55.2269906,31.7261389 C55.2269906,31.7261389 55.1462968,32.27225 54.6917076,32.0828056 C54.2417658,31.92475 53.5001714,31.1769722 53.3501908,30.1426667 C53.1890849,28.7837778 53.7944996,26.486 55.0318045,23.8514167 C54.6708652,23.2653056 54.4248407,22.4275278 54.6353769,21.23475 C54.6353769,21.23475 54.9464634,19.0198889 57.1725138,17.0233611 C57.1725138,17.0233611 57.4393807,16.7928056 57.5940087,16.8637778 C57.7642683,16.9354444 57.6855461,17.6558611 57.5502115,18.0062778 C57.4099479,18.3548889 56.4186676,20.0698889 56.4186676,20.0698889 C56.4186676,20.0698889 55.8004376,21.2282222 55.9743588,22.1415556 C57.1419544,20.3478056 59.7962593,16.7301667 61.441258,17.8712778 C61.993581,18.2662778 62.2484776,19.1255833 62.2486185,20.0519722 C62.2487593,20.8650278 62.0527283,21.72975 61.689395,22.37725 M49.5567373,25.6839167 C49.5567373,25.6839167 48.7616288,25.7351667 48.0890397,24.66225 C47.4633459,23.6401667 48.3264738,21.7051667 48.3264738,21.7051667 C48.3264738,21.7051667 47.9310319,20.8012778 48.2177554,20.4955833 C48.2177554,20.4955833 48.3880151,20.3407222 48.8856973,20.3055833 L49.4947735,19.0462778 C49.4947735,19.0462778 48.8007787,19.0940556 48.3880151,18.5839167 C48.0036986,18.0998889 47.9715901,17.8778056 48.2664815,17.7441944 C48.5816521,17.5882222 51.4712787,17.0614167 53.4594725,17.1280833 C53.4594725,17.1280833 54.1503691,17.0604444 54.7497283,18.2583611 C54.7497283,18.2583611 55.0399725,18.7429444 54.5463743,18.8593333 C53.5850901,19.0808611 51.056966,19.2037778 51.056966,19.2037778 L50.738134,20.2019722 C50.738134,20.2019722 52.0014919,20.0937778 52.920528,20.18975 C52.920528,20.18975 53.2185177,20.1551667 53.2535836,20.5276667 C53.2652722,20.8751667 53.2241508,21.2473889 53.2241508,21.2473889 C53.2241508,21.2473889 53.2047167,21.4729444 52.8850397,21.5304444 C52.5387464,21.5882222 50.1621521,21.67975 50.1621521,21.67975 L49.777413,22.9807222 C49.777413,22.9807222 49.6344738,23.2815556 49.9547141,23.1957222 C50.2527037,23.1158611 52.7426637,22.6490556 53.066988,22.7161389 C53.4146895,22.8025278 53.7990061,23.2653056 53.6881753,23.6873889 C53.5555164,24.2105833 51.0702037,25.7941944 49.5567373,25.6839167 M47.0677632,23.7011389 C46.8131482,24.3001667 46.1399957,24.9396111 45.3037658,24.5423889 C44.4782386,24.1441944 43.1636198,21.45475 43.1636198,21.45475 C43.1636198,21.45475 42.6643885,20.4519722 42.5683446,20.4778056 C42.5683446,20.4778056 42.4604712,20.28225 42.3944234,21.3780833 C42.3256999,22.4691944 42.4076611,24.5966944 41.9719428,24.9315556 C41.5597425,25.2673889 41.0599479,25.1337778 40.8006857,24.7414167 C40.565364,24.3543333 40.4672076,23.4364167 40.5957826,21.8235 C40.7468898,20.2069722 41.1224751,18.4879444 41.602413,17.9525278 C42.0817877,17.4205833 42.4665267,17.8066944 42.6165074,17.9469722 C42.6165074,17.9469722 43.2575513,18.5275278 44.3150203,20.2330833 L44.5016159,20.5485 C44.5016159,20.5485 45.4623368,22.1593333 45.563028,22.1557222 C45.563028,22.1557222 45.6413278,22.2294722 45.7114596,22.1761389 C45.8121508,22.1476667 45.7714518,21.631 45.7714518,21.631 C45.7714518,21.631 45.5721818,19.8753056 44.6958161,16.9035 C44.6958161,16.9035 44.5630164,16.5330833 44.6525823,16.1855833 C44.7415849,15.8346111 45.0937929,15.9991944 45.0937929,15.9991944 C45.0937929,15.9991944 46.4522089,16.6819722 47.1115603,18.8923889 C47.7668278,21.1032222 47.326603,23.0980833 47.0677632,23.7011389 M40.3879221,18.0119722 C40.2720216,18.2385 40.2094944,18.5651667 39.6364699,18.651 C39.6364699,18.651 34.1430952,19.0273889 33.8834105,19.4104444 C33.8834105,19.4104444 33.690196,19.6396111 33.9901572,19.7040556 C34.2885694,19.7671111 35.5305216,19.9326667 36.1297399,19.9641944 C36.7723329,19.9712778 38.9299415,19.9875278 39.7026585,20.9578056 C39.7026585,20.9578056 40.1606275,21.4146111 40.14232,22.4565556 C40.1204919,23.5218333 39.9329105,23.89725 39.5221185,24.28225 C39.0854143,24.6414167 35.3636417,26.3055833 32.9632477,23.7462778 C32.9632477,23.7462778 31.8590242,22.5129444 33.344466,21.5796111 C33.344466,21.5796111 34.4212283,20.9315556 37.1449609,21.6950278 C37.1449609,21.6950278 37.9690797,21.9951667 37.933028,22.2971111 C37.886696,22.6173889 37.2559324,22.9579444 36.3352063,22.9357222 C35.4420823,22.9086389 34.7847025,22.4808611 34.9117283,22.5515556 C35.0343885,22.5982222 33.9539647,22.0337778 33.6179518,22.4153056 C33.2850371,22.7704444 33.362351,22.9915556 33.6882244,23.2064167 C34.5234686,23.67975 37.7429118,23.5121111 38.7047593,22.4457222 C38.7047593,22.4457222 39.0854143,22.0155833 38.5054893,21.6589167 C37.9252826,21.3257222 36.2609906,21.1248889 35.6138911,21.0955833 C34.9915771,21.0608611 32.6882128,21.1032222 32.3512141,20.4921111 C32.3512141,20.4921111 32.0191443,20.0805833 32.382196,18.9054444 C32.7696107,17.6811389 35.4557425,17.2087778 36.6209441,17.1000278 C36.6209441,17.1000278 39.8148975,16.9887778 40.4041172,17.6400278 C40.4041172,17.6400278 40.4829802,17.7894722 40.3879221,18.0119722 M29.5891766,15.5907222 C29.3055513,16.0932222 29.1337425,16.2461389 28.9156017,16.2796111 C28.5928265,16.3126667 28.3076521,15.7990556 28.2521663,15.6298889 C28.1968213,15.5064167 28.0437425,15.2869722 28.2293523,14.7861389 C27.59028,14.2094722 27.5446521,13.4419722 27.6502722,12.9191944 C27.8088433,12.3201667 28.8891262,10.0362778 32.178842,9.77002778 C32.178842,9.77002778 33.783705,9.65113889 34.0597257,10.5107222 L34.1064802,10.5107222 C34.1064802,10.5107222 35.6686727,10.5153056 35.6351559,11.9041944 C35.6234673,13.2925278 33.9093226,15.0289167 32.1437761,15.6212778 C31.0151895,15.9976667 30.2405009,15.8707222 29.5891766,15.5907222 M31.3155733,25.2037778 C30.9257645,25.4878056 30.1057296,25.3623889 29.8739286,25.0458611 C29.6415642,24.7562778 29.5607296,23.6187778 29.6101598,21.8326667 C29.6569143,20.02475 29.6949376,17.7894722 30.0833381,17.4353056 C30.496665,17.0757222 30.7528291,17.3890556 30.9094286,17.6340556 C31.0858846,17.87475 31.2927593,18.1425278 31.3354298,18.7104444 C31.375143,19.2773889 31.5068161,22.2507222 31.5068161,22.2507222 C31.5068161,22.2507222 31.6786249,24.9218333 31.3155733,25.2037778 M28.8256133,20.4426667 C28.7001366,22.0551667 28.0803575,24.7725278 23.6799402,26.1116944 C20.77778,26.9848889 18.038134,26.5662778 16.5390319,26.1857222 C16.5074867,26.7796111 16.4414389,27.0311389 16.3458174,27.1337778 C16.2223123,27.2590556 15.2727167,27.8089167 14.7520797,27.0311389 C14.5183071,26.6643333 14.40128,25.99475 14.3336831,25.4055833 C10.9704557,23.8616944 9.4209376,21.6294722 9.36446602,21.5304444 C9.28982778,21.4593333 8.52570116,20.6591944 9.28982778,19.67475 C10.0105797,18.7882222 12.3643601,17.9041944 14.4871844,17.5440556 C14.5604143,15.7340556 14.7734854,14.3644722 15.0271146,13.7390556 C15.3315823,13.0115556 15.7184337,13.6689167 16.0555733,14.1566944 C16.337227,14.5214167 16.5034027,16.1008611 16.5172037,17.3662778 C17.9013911,17.30225 18.7255099,17.4028056 20.2713665,17.68225 C22.2865991,18.0485 23.6321999,19.0757222 23.5147503,20.2436389 C23.4268743,21.3871111 22.3725035,21.8621111 21.9734001,21.8946111 C21.550497,21.9311389 20.8993136,21.631 20.8993136,21.631 C20.449935,21.4187778 20.8642477,21.2332222 21.4040371,20.9944722 C21.9891727,20.7069722 21.8586262,20.4141944 21.8586262,20.4141944 C21.6404854,19.77725 19.0244854,19.3276667 16.4215823,19.3255833 C16.4114428,20.7616944 16.4810112,23.1412778 16.5172037,24.5271111 C18.3385177,24.8746111 19.7000319,24.8096111 19.7000319,24.8096111 C19.7000319,24.8096111 26.3412864,24.6255833 26.5430913,20.3837778 C26.7484169,16.1368333 19.9156379,12.0651667 14.8691068,10.7708611 C9.82398411,9.44891667 6.9720991,10.3729444 6.72649703,10.5005833 C6.45920762,10.6341944 6.70875284,10.6762778 6.70875284,10.6762778 C6.70875284,10.6762778 6.98026705,10.716 7.45752933,10.8785 C7.96042209,11.0379444 7.5679376,11.2955833 7.5679376,11.2955833 C6.70875284,11.5678056 5.73831486,11.3955833 5.55425413,11.0055833 C5.36610943,10.6148889 5.6777593,10.2607222 6.0382761,9.75225 C6.3972438,9.22127778 6.79268566,9.23613889 6.79268566,9.23613889 C13.0303304,7.07863889 20.6293484,10.9796111 20.6293484,10.9796111 C27.746457,14.5758611 28.9553149,18.8035 28.8256133,20.4426667 M68.4419027,2.77777778e-05 L2.53492597,2.77777778e-05 C1.13496602,2.77777778e-05 4.2248062e-05,1.11933333 4.2248062e-05,2.50002778 L4.2248062e-05,37.5000278 C4.2248062e-05,38.8807222 1.13496602,40.0000278 2.53492597,40.0000278 L68.4419027,40.0000278 C69.8418627,40.0000278 70.9767864,38.8807222 70.9767864,37.5000278 L70.9767864,2.50002778 C70.9767864,1.11933333 69.8418627,2.77777778e-05 68.4419027,2.77777778e-05" id="Fill-7" fill="#000000" mask="url(#mask-2)"></path></g><path d="M9.92166632,21.0281657 C11.1685093,22.4385119 12.7066176,23.3246817 14.1655906,23.8709677 C14.3370944,21.4373996 14.3112894,20.581579 14.3255814,19.3548387 C12.0445548,19.5201802 10.7285016,19.9019487 10.128503,20.188275 C9.4626026,20.5281589 9.92166632,21.0281657 9.92166632,21.0281657" id="Fill-10" fill="#000000"></path><path d="M75.5348837,14.8386027 L77.3265822,14.350441 C77.8184802,15.2570066 78.854728,15.7451684 80.2598633,15.7451684 C81.8232165,15.7451684 82.6664702,15.2570066 82.6664702,14.350441 C82.6664702,12.0662663 75.9741861,14.141025 75.9741861,9.95641477 C75.9741861,8.24742075 77.8009483,7.09677419 80.119321,7.09677419 C81.9462269,7.09677419 83.7906647,8.00348254 84.3877538,9.38109149 L82.6312628,9.85170679 C82.2097796,9.11946419 81.2261274,8.70106023 80.1545285,8.70106023 C78.7495368,8.70106023 77.9062832,9.17167553 77.9062832,9.99136498 C77.9062832,12.2579932 84.6511628,10.1655454 84.6511628,14.298087 C84.6511628,16.2162116 82.947411,17.4193548 80.2598633,17.4193548 C77.9940862,17.4193548 76.1497921,16.4077959 75.5348837,14.8386027" id="Fill-12" fill="#000000"></path><path d="M86.7434503,13.3391798 L86.7434503,8.89591077 L85.3023256,8.89591077 L85.3023256,7.39176526 L86.7434503,7.39176526 L86.7434503,5.57643675 L88.7058179,5.16129032 L88.7058179,7.39176526 L91.640348,7.39176526 L91.640348,8.89591077 L88.7058179,8.89591077 L88.7058179,13.1144208 C88.7058179,15.1545083 89.2439666,15.8632983 90.7547041,15.8632983 C90.9456417,15.8632983 91.1716699,15.8287853 91.5534031,15.7768743 L91.8139535,17.2810198 C91.4319361,17.3674439 90.8764552,17.4193548 90.4596315,17.4193548 C87.9068347,17.4193548 86.7434503,16.3647273 86.7434503,13.3391798" id="Fill-14" fill="#000000"></path><path d="M94.4186047,7.21534797 L96.282396,7.21534797 L96.282396,8.81949494 C96.648673,7.8001035 97.6471521,6.86424856 99.627907,7.1483547 L99.4280205,8.95320803 C97.2977593,8.55220547 96.282396,9.70531001 96.282396,12.0447423 L96.282396,16.7741935 L94.4186047,16.7741935 L94.4186047,7.21534797 Z" id="Fill-16" fill="#000000"></path><path d="M108.221073,11.232773 C108.083531,9.65150805 107.017509,8.64349074 105.281497,8.64349074 C103.630991,8.64349074 102.479463,9.51246137 102.255992,11.232773 L108.221073,11.232773 Z M100.27907,12.2579934 C100.27907,9.19967744 102.307465,7.09677419 105.247041,7.09677419 C108.375632,7.09677419 110.266485,9.42559275 110.025997,12.7621443 L102.204519,12.7621443 C102.27329,14.6910259 103.459134,15.786054 105.367425,15.786054 C106.742565,15.786054 107.636448,15.3167359 108.117705,14.3610389 L109.888455,14.63899 C109.097658,16.481003 107.550379,17.4193548 105.332969,17.4193548 C102.27329,17.4193548 100.27907,15.3687718 100.27907,12.2579934 Z" id="Fill-18" fill="#000000"></path><path d="M119.922197,12.2407776 C119.922197,10.0757987 118.686587,8.74215246 116.892169,8.74215246 C115.114785,8.74215246 113.895932,10.0586534 113.895932,12.2407776 C113.895932,14.440472 115.114785,15.7568313 116.926099,15.7568313 C118.703483,15.7568313 119.922197,14.4233268 119.922197,12.2407776 M112,12.2407776 C112,8.82872894 114.031375,7.09677419 116.435151,7.09677419 C117.958682,7.09677419 119.312979,7.85881728 119.87151,9.22717914 L119.87151,7.28749751 L121.767442,7.28749751 L121.767442,17.177054 L119.87151,17.177054 L119.87151,15.3063786 C119.329736,16.6401665 117.958682,17.4193548 116.452047,17.4193548 C114.048133,17.4193548 112,15.6702548 112,12.2407776" id="Fill-20" fill="#000000"></path><path d="M124.372093,7.27956431 L126.291344,7.27956431 L126.291344,9.07229263 C126.634257,7.84382355 127.747955,7.1134779 129.273122,7.1134779 C130.917873,7.1134779 131.723566,7.71114454 132.25476,9.37105805 C132.717258,7.92693465 134.019657,7.09677419 135.85339,7.09677419 C138.320797,7.09677419 139.348837,8.52446549 139.348837,11.9436999 L139.348837,16.7741935 L137.429867,16.7741935 L137.429867,12.0932184 C137.429867,9.66982347 136.778668,8.706984 135.150739,8.706984 C133.47122,8.706984 132.768709,9.70309507 132.768709,12.0600826 L132.768709,16.7741935 L130.849599,16.7741935 L130.849599,12.1097863 C130.849599,9.61998397 130.266814,8.72368771 128.673233,8.72368771 C127.010958,8.72368771 126.291344,9.80250248 126.291344,12.2424653 L126.291344,16.7741935 L124.372093,16.7741935 L124.372093,7.27956431 Z" id="Fill-22" fill="#000000"></path><mask id="mask-4" fill="white"><use xlink:href="#path-3"></use></mask><g id="Clip-25"></g><path d="M142.309651,16.7741935 L144.483158,16.7741935 L144.483158,7.25093212 L142.309651,7.25093212 L142.309651,16.7741935 Z M141.953488,4.8700827 C141.953488,4.237378 142.662129,3.87096774 143.405857,3.87096774 C144.110973,3.87096774 144.55814,4.237378 144.55814,4.8700827 C144.55814,5.48603333 144.110973,5.86892524 143.405857,5.86892524 C142.662129,5.86892524 141.953488,5.48603333 141.953488,4.8700827 Z" id="Fill-24" fill="#000000" mask="url(#mask-4)"></path><path d="M146.511628,7.26314778 L148.438118,7.26314778 L148.438118,8.99231752 C148.885333,7.81165005 150.003232,7.09677419 151.65475,7.09677419 C154.372382,7.09677419 155.627907,8.60978072 155.627907,11.6196053 L155.627907,16.7741935 L153.701417,16.7741935 L153.701417,11.7691103 C153.701417,9.69086891 152.87608,8.70976811 151.052599,8.70976811 C149.194923,8.70976811 148.438118,9.89016351 148.438118,11.9855456 L148.438118,16.7741935 L146.511628,16.7741935 L146.511628,7.26314778 Z" id="Fill-26" fill="#000000" mask="url(#mask-4)"></path><path d="M166.137945,11.9735754 C166.137945,9.86152179 164.935954,8.57341352 163.124866,8.57341352 C161.330258,8.57341352 160.128267,9.86152179 160.128267,11.9735754 C160.128267,14.1197669 161.330258,15.390455 163.141624,15.390455 C164.935954,15.390455 166.137945,14.1027682 166.137945,11.9735754 M158.469383,17.8975529 L160.263991,17.4510911 C160.738057,18.4642699 161.787427,19.1168234 163.107692,19.1168234 C165.020713,19.1168234 166.104014,18.1552026 166.104014,15.6995224 L166.104014,14.8411581 C165.562502,16.3006583 164.191133,16.8673753 162.684454,16.8673753 C160.263991,16.8673753 158.232558,15.2362024 158.232558,11.9735754 C158.232558,8.72808766 160.263991,7.09677419 162.667558,7.09677419 C164.191133,7.09677419 165.562502,7.66349126 166.104014,9.14013058 L166.104014,7.26858752 L168,7.26858752 L168,15.390455 C168,19.0652654 166.290428,20.6451613 163.090935,20.6451613 C160.8224,20.6451613 159.129585,19.6491216 158.469383,17.8975529" id="Fill-27" fill="#000000" mask="url(#mask-4)"></path><path d="M75.5348837,31.6127962 L77.3265822,31.1244919 C77.8184802,32.0312002 78.854728,32.5193619 80.2598633,32.5193619 C81.8232165,32.5193619 82.6664702,32.0312002 82.6664702,31.1244919 C82.6664702,28.8403172 75.9741861,30.9152185 75.9741861,26.7306083 C75.9741861,25.0216143 77.8009483,23.8709677 80.119321,23.8709677 C81.9462269,23.8709677 83.7906647,24.7776761 84.3877538,26.1551424 L82.6312628,26.6257577 C82.2097796,25.8935151 81.2261274,25.4752538 80.1545285,25.4752538 C78.7495368,25.4752538 77.9062832,25.9458691 77.9062832,26.7655585 C77.9062832,29.0320441 84.6511628,26.9395963 84.6511628,31.0722805 C84.6511628,32.9902625 82.947411,34.1935484 80.2598633,34.1935484 C77.9940862,34.1935484 76.1497921,33.1821321 75.5348837,31.6127962" id="Fill-28" fill="#000000" mask="url(#mask-4)"></path><path d="M93.895474,28.0069666 C93.7579322,26.4257016 92.6919127,25.4176843 90.9560449,25.4176843 C89.305543,25.4176843 88.1538763,26.2866549 87.930406,28.0069666 L93.895474,28.0069666 Z M85.9534884,29.032187 C85.9534884,25.973871 87.9818787,23.8709677 90.9215891,23.8709677 C94.0500328,23.8709677 95.9410219,26.1997863 95.700394,29.53648 L87.8789333,29.53648 C87.9478448,31.4652194 89.133686,32.5601054 91.0418327,32.5601054 C92.4169697,32.5601054 93.3108509,32.0909295 93.7922473,31.1352324 L95.5628522,31.4131836 C94.7721977,33.2550544 93.2247818,34.1935484 91.0075176,34.1935484 C87.9478448,34.1935484 85.9534884,32.1429654 85.9534884,29.032187 Z" id="Fill-29" fill="#000000" mask="url(#mask-4)"></path><path d="M97.6744186,23.9860646 L99.6062986,23.9860646 L99.6062986,25.5907951 C99.972495,24.6063197 100.970186,23.7034964 102.883721,23.8974372 L102.708314,25.6981601 C100.608364,25.3797579 99.6062986,26.5335554 99.6062986,28.8170788 L99.6062986,33.5483871 L97.6744186,33.5483871 L97.6744186,23.9860646 Z" id="Fill-30" fill="#000000" mask="url(#mask-4)"></path><polygon id="Fill-31" fill="#000000" mask="url(#mask-4)" points="104.186047 23.8709677 106.256302 23.8709677 109.378135 31.4710223 112.500523 23.8709677 114.604651 23.8709677 110.328512 33.5483871 108.428314 33.5483871"></polygon><path d="M116.102762,33.5483871 L118.276269,33.5483871 L118.276269,24.0251257 L116.102762,24.0251257 L116.102762,33.5483871 Z M115.906977,21.6442763 C115.906977,21.0114353 116.4554,20.6451613 117.199129,20.6451613 C117.904244,20.6451613 118.511628,21.0114353 118.511628,21.6442763 C118.511628,22.2600907 117.904244,22.6431188 117.199129,22.6431188 C116.4554,22.6431188 115.906977,22.2600907 115.906977,21.6442763 Z" id="Fill-32" fill="#000000" mask="url(#mask-4)"></path><path d="M120.465116,29.032187 C120.465116,26.0259069 122.424495,23.8709677 125.164473,23.8709677 C127.55545,23.8709677 128.983651,25.0180317 129.581395,27.2771848 L127.987184,27.607314 C127.522166,26.1997863 126.642396,25.5218982 125.247478,25.5218982 C123.520405,25.5218982 122.324916,26.9467712 122.324916,29.032187 C122.324916,31.1003996 123.520405,32.5252726 125.247478,32.5252726 C126.542545,32.5252726 127.539012,31.7608003 127.953901,30.4572021 L129.548112,30.7876157 C129.033373,32.9250674 127.439297,34.1935484 125.164473,34.1935484 C122.424495,34.1935484 120.465116,32.0387514 120.465116,29.032187" id="Fill-33" fill="#000000" mask="url(#mask-4)"></path><path d="M139.476869,28.0069666 C139.339328,26.4257016 138.273308,25.4176843 136.53744,25.4176843 C134.886938,25.4176843 133.735272,26.2866549 133.511801,28.0069666 L139.476869,28.0069666 Z M131.534884,29.032187 C131.534884,25.973871 133.563274,23.8709677 136.502984,23.8709677 C139.631428,23.8709677 141.522417,26.1997863 141.281789,29.53648 L133.460329,29.53648 C133.52924,31.4652194 134.715081,32.5601054 136.623228,32.5601054 C137.998365,32.5601054 138.892246,32.0909295 139.373643,31.1352324 L141.144248,31.4131836 C140.353593,33.2550544 138.806177,34.1935484 136.588913,34.1935484 C133.52924,34.1935484 131.534884,32.1429654 131.534884,29.032187 Z" id="Fill-34" fill="#000000" mask="url(#mask-4)"></path><path d="M142.604651,31.6127962 L144.39635,31.1244919 C144.888248,32.0312002 145.924495,32.5193619 147.329631,32.5193619 C148.892984,32.5193619 149.736094,32.0312002 149.736094,31.1244919 C149.736094,28.8403172 143.04381,30.9152185 143.04381,26.7306083 C143.04381,25.0216143 144.870572,23.8709677 147.189088,23.8709677 C149.015994,23.8709677 150.860288,24.7776761 151.457378,26.1551424 L149.70103,26.6257577 C149.279403,25.8935151 148.295751,25.4752538 147.224296,25.4752538 C145.819161,25.4752538 144.975907,25.9458691 144.975907,26.7655585 C144.975907,29.0320441 151.72093,26.9395963 151.72093,31.0722805 C151.72093,32.9902625 150.017035,34.1935484 147.329631,34.1935484 C145.06371,34.1935484 143.219416,33.1821321 142.604651,31.6127962" id="Fill-35" fill="#000000" mask="url(#mask-4)"></path></g></g></g></g></g></svg> 